SplineFontDB: 3.2
FontName: RictyDiminished-Regular
FullName: Ricty Diminished Regular
FamilyName: Ricty Diminished
Weight: Book
Copyright: Copyright (c) 2011-2017 Yasunori Yusa\nCopyright (c) 2006 The Inconsolata Project Authors\nCopyright (c) 2020 itouhiro\nCopyright (C) 2002-2019 M+ FONTS PROJECT\nSIL Open Font License Version 1.1 (http://scripts.sil.org/ofl)
Version: 4.1.1.20200415
ItalicAngle: 0
UnderlinePosition: -150
UnderlineWidth: 50
Ascent: 860
Descent: 140
InvalidEm: 0
sfntRevision: 0x00041999
LayerCount: 2
Layer: 0 1 "+gMyXYgAA" 1
Layer: 1 1 "+Uk2XYgAA" 0
XUID: [1021 1008 -2030067150 12016504]
StyleMap: 0x0040
FSType: 0
OS2Version: 1
OS2_WeightWidthSlopeOnly: 0
OS2_UseTypoMetrics: 0
CreationTime: 1586902698
ModificationTime: 1739666572
PfmFamily: 17
TTFWeight: 400
TTFWidth: 5
LineGap: 0
VLineGap: 0
Panose: 2 11 5 9 2 2 3 2 2 7
OS2TypoAscent: 860
OS2TypoAOffset: 0
OS2TypoDescent: -140
OS2TypoDOffset: 0
OS2TypoLinegap: 0
OS2WinAscent: 835
OS2WinAOffset: 0
OS2WinDescent: 215
OS2WinDOffset: 0
HheadAscent: 835
HheadAOffset: 0
HheadDescent: -215
HheadDOffset: 0
OS2SubXSize: 650
OS2SubYSize: 699
OS2SubXOff: 0
OS2SubYOff: 140
OS2SupXSize: 650
OS2SupYSize: 699
OS2SupXOff: 0
OS2SupYOff: 479
OS2StrikeYSize: 49
OS2StrikeYPos: 258
OS2FamilyClass: 2057
OS2Vendor: 'PfEd'
OS2CodePages: 4012019f.dfd70000
OS2UnicodeRanges: e00002bf.6ac7fdfb.04000012.00000000
MarkAttachClasses: 1
DEI: 91125
MacFeat: 0 0 0
MacName: 0 0 24 "All Typographic Features"
MacName: 0 1 24 "Fonctions typographiques"
MacName: 0 2 32 "Alle typografischen Mglichkeiten"
MacName: 0 3 21 "Funzioni Tipografiche"
MacName: 0 4 28 "Alle typografische kenmerken"
MacSetting: 0
MacName: 0 0 17 "All Type Features"
MacName: 0 1 31 "Toutes fonctions typographiques"
MacName: 0 2 23 "Alle Auszeichnungsarten"
MacName: 0 3 17 "Tutte le Funzioni"
MacName: 0 4 18 "Alle typekenmerken"
MacFeat: 10 1 0
MacName: 0 0 17 "Vertical Position"
MacName: 0 1 18 "Position Verticale"
MacName: 0 4 17 "Verticale positie"
MacSetting: 0

StartChar: u1B11F
Encoding: 110879 110879 0
Width: 1000
Flags: W
LayerCount: 2
Fore
SplineSet
634 375 m 5,0,-1
 361 375 l 5,1,-1
 361 434 l 5,2,-1
 634 434 l 5,3,-1
 634 612 l 1,4,-1
 361 612 l 1,5,-1
 361 672 l 1,6,-1
 864 672 l 1,7,-1
 864 612 l 1,8,-1
 700 612 l 1,9,-1
 700 434 l 5,10,-1
 864 434 l 5,11,-1
 864 375 l 5,12,-1
 700 375 l 5,13,-1
 700 334 l 2,14,15
 700 153 700 153 661 84 c 128,-1,16
 622 15 622 15 524 -20 c 0,17,18
 493 -31 493 -31 453 -42 c 1,19,-1
 432 18 l 1,20,21
 536 46 536 46 575 80 c 0,22,23
 627 124 627 124 630 220 c 0,24,25
 634 324 634 324 634 334 c 2,26,-1
 634 375 l 5,0,-1
222 690 m 1,27,28
 177 518 177 518 178 328 c 0,29,30
 178 136 178 136 222 -35 c 1,31,-1
 157 -44 l 1,32,33
 111 129 111 129 111 328 c 0,34,35
 111 529 111 529 157 699 c 1,36,-1
 222 690 l 1,27,28
EndSplineSet
Colour: ff00ff
EndChar

StartChar: u1B120
Encoding: 110880 110880 1
Width: 1000
Flags: W
LayerCount: 2
Fore
SplineSet
122 -41 m 1,0,-1
 111 24 l 1,1,2
 251 44 251 44 383 95 c 1,3,-1
 383 679 l 1,4,-1
 457 679 l 1,5,-1
 457 126 l 1,6,7
 521 156 521 156 583 193 c 0,8,9
 706 267 706 267 795 362 c 1,10,-1
 839 313 l 1,11,12
 570 22 570 22 122 -41 c 1,0,-1
EndSplineSet
Colour: ff00ff
EndChar

StartChar: u1B121
Encoding: 110881 110881 2
Width: 1000
Flags: W
LayerCount: 2
Fore
SplineSet
126 21 m 5,0,-1
 126 85 l 1037,1,-1
153 397 m 5,2,3
 358 441 358 441 540 551 c 4,4,5
 636 609 636 609 711 679 c 5,6,-1
 759 633 l 5,7,8
 649 527 649 527 514 455 c 5,9,-1
 514 85 l 5,10,-1
 830 85 l 5,11,-1
 830 21 l 5,12,-1
 126 21 l 5,13,-1
 126 85 l 5,14,-1
 442 85 l 5,15,-1
 442 419 l 5,16,17
 314 362 314 362 166 332 c 5,18,19
 166 332 166 332 153 397 c 5,2,3
EndSplineSet
Colour: ff00ff
EndChar

StartChar: u1B122
Encoding: 110882 110882 3
Width: 1000
Flags: W
LayerCount: 2
Fore
SplineSet
199 598 m 1,0,-1
 199 662 l 1,1,-1
 757 662 l 1,2,-1
 757 598 l 1,3,-1
 524 598 l 1,4,-1
 524 416 l 1,5,-1
 860 416 l 1,6,-1
 860 352 l 1,7,-1
 524 352 l 1,8,-1
 524 79 l 2,9,10
 524 6 524 6 503 -12 c 128,-1,12
 482 -30 482 -30 421 -30 c 0,13,14
 354 -30 354 -30 277 -18 c 1,15,-1
 284 45 l 1,16,17
 342 35 342 35 407 35 c 0,18,19
 436 35 436 35 445 44 c 0,20,21
 451 50 451 50 451 87 c 2,22,-1
 451 352 l 1,23,-1
 96 352 l 1,24,-1
 96 416 l 1,25,-1
 451 416 l 1,26,-1
 451 598 l 1,27,-1
 199 598 l 1,0,-1
EndSplineSet
Colour: ff00ff
EndChar

StartChar: u1B132
Encoding: 110898 110898 4
Width: 1000
Flags: W
LayerCount: 2
Fore
SplineSet
483 -33 m 0,0,1
 314 -33 314 -33 244 37 c 0,2,3
 208 73 208 73 208 123 c 0,4,5
 209 196 209 196 315 299 c 1,6,-1
 362 261 l 1,7,8
 273 172 273 172 272 127 c 0,9,10
 272 72 272 72 349 46 c 0,11,12
 402 27 402 27 483 26 c 0,13,14
 587 26 587 26 693 51 c 0,15,16
 705 54 705 54 723 59 c 1,17,-1
 736 -1 l 1,18,19
 646 -26 646 -26 519 -32 c 0,20,21
 506 -33 506 -33 483 -33 c 0,0,1
272 455 m 1,22,-1
 272 512 l 1,23,-1
 691 512 l 1,24,-1
 691 455 l 1,25,-1
 272 455 l 1,22,-1
EndSplineSet
Colour: ff00ff
EndChar

StartChar: u1B150
Encoding: 110928 110928 5
Width: 1000
Flags: W
LayerCount: 2
Fore
SplineSet
496 69 m 0,0,1
 496 121 496 121 532.5 149.5 c 128,-1,2
 569 178 569 178 620 178 c 0,3,4
 676 177 676 177 723 139 c 1,5,6
 726 161 726 161 726 180 c 0,7,8
 726 266 726 266 655 318 c 0,9,10
 598 359 598 359 513 362 c 1,11,12
 431 76 431 76 368 13 c 0,13,14
 337 -18 337 -18 298 -18 c 0,15,16
 241 -18 241 -18 204 33 c 0,17,18
 171 78 171 78 171 141 c 0,19,20
 171 257 171 257 259 335 c 0,21,22
 340 407 340 407 464 418 c 0,23,24
 465 421 465 421 467.5 432 c 128,-1,25
 470 443 470 443 474 459 c 128,-1,26
 478 475 478 475 483 492 c 1,27,28
 482 492 482 492 250 492 c 1,29,-1
 250 546 l 1,30,-1
 549 546 l 1,31,-1
 549 497 l 1,32,-1
 528 419 l 1,33,34
 655 412 655 412 725 335 c 0,35,36
 785 271 785 271 785 180 c 0,37,38
 785 53 785 53 713 -9 c 0,39,40
 673 -43 673 -43 622 -43 c 0,41,42
 561 -43 561 -43 528.5 -9.5 c 128,-1,43
 496 24 496 24 496 69 c 0,0,1
230 141 m 0,44,45
 230 83 230 83 265 54 c 0,46,47
 281 41 281 41 296 41 c 0,48,49
 360 41 360 41 448 358 c 1,50,51
 337 341 337 341 277 268 c 0,52,53
 230 212 230 212 230 141 c 0,44,45
707 78 m 1,54,55
 666 120 666 120 622 120 c 0,56,57
 574 120 574 120 561 90 c 0,58,59
 556 79 556 79 556 69 c 0,60,61
 556 40 556 40 576 27.5 c 128,-1,62
 596 15 596 15 622 15 c 0,63,64
 680 15 680 15 707 78 c 1,54,55
EndSplineSet
Colour: ff00ff
EndChar

StartChar: u1B151
Encoding: 110929 110929 6
Width: 1000
Flags: W
LayerCount: 2
Fore
SplineSet
607 126 m 1,0,-1
 656 158 l 1,1,2
 739 78 739 78 797 -14 c 1,3,-1
 745 -39 l 1,4,5
 695 38 695 38 607 126 c 1,0,-1
689 312 m 2,6,7
 689 331 689 331 676.5 343.5 c 128,-1,8
 664 356 664 356 624 364 c 128,-1,9
 584 372 584 372 514 372 c 0,10,11
 380 372 380 372 210 322 c 1,12,-1
 192 372 l 1,13,-1
 539 487 l 1,14,-1
 260 487 l 1,15,-1
 260 541 l 1,16,-1
 710 541 l 1,17,-1
 710 493 l 1,18,-1
 491 420 l 1,19,20
 532 425 532 425 559 424 c 0,21,22
 706 424 706 424 743 357 c 0,23,24
 754 338 754 338 754 314 c 0,25,26
 754 283 754 283 738.5 258 c 128,-1,27
 723 233 723 233 696 217.5 c 128,-1,28
 669 202 669 202 638.5 191.5 c 128,-1,29
 608 181 608 181 571 176 c 128,-1,30
 534 171 534 171 506 169 c 128,-1,31
 478 167 478 167 449 167 c 2,32,-1
 425 167 l 1,33,34
 399 151 399 151 347 107 c 1,35,36
 358 112 358 112 374 115.5 c 128,-1,37
 390 119 390 119 394 119 c 0,38,39
 431 119 431 119 456 77 c 0,40,41
 457 75 457 75 459.5 70.5 c 128,-1,42
 462 66 462 66 463 64 c 0,43,44
 473 43 473 43 482.5 32.5 c 128,-1,45
 492 22 492 22 496.5 20 c 128,-1,46
 501 18 501 18 509 18 c 0,47,48
 534 18 534 18 554 35.5 c 128,-1,49
 574 53 574 53 596 85 c 1,50,-1
 636 46 l 1,51,52
 627 33 627 33 621.5 25.5 c 128,-1,53
 616 18 616 18 602.5 3 c 128,-1,54
 589 -12 589 -12 572.5 -22.5 c 128,-1,55
 556 -33 556 -33 536 -37 c 0,56,57
 524 -40 524 -40 512 -40 c 0,58,59
 456 -40 456 -40 424 10 c 0,60,61
 424 11 424 11 421.5 15 c 128,-1,62
 419 19 419 19 418 22 c 0,63,64
 402 53 402 53 389 59 c 0,65,66
 380 63 380 63 372 63 c 0,67,68
 319 63 319 63 254 7 c 0,69,70
 230 -14 230 -14 208 -40 c 1,71,-1
 159 -5 l 1,72,73
 254 108 254 108 342 176 c 1,74,75
 240 197 240 197 239 256 c 0,76,77
 239 292 239 292 286 315 c 0,78,79
 327 336 327 336 387 334 c 0,80,81
 518 332 518 332 522 258 c 0,82,83
 522 257 522 257 522 258 c 2,84,85
 522 240 522 240 512 226 c 1,86,87
 676 235 676 235 688 302 c 1,88,-1
 689 312 l 2,6,7
457 259 m 0,89,90
 456 280 456 280 387 280 c 0,91,92
 321 280 321 280 307 261 c 0,93,94
 305 258 305 258 305 256 c 0,95,96
 305 240 305 240 340 232.5 c 128,-1,97
 375 225 375 225 417 224 c 1,98,99
 453 246 453 246 456 255 c 0,100,101
 456 256 456 256 456.5 257 c 128,-1,102
 457 258 457 258 457 259 c 0,89,90
EndSplineSet
Colour: ff00ff
EndChar

StartChar: u1B152
Encoding: 110930 110930 7
Width: 1000
Flags: W
LayerCount: 2
Fore
SplineSet
511 217 m 1,0,1
 351 167 351 167 348 98 c 0,2,3
 348 54 348 54 390 37 c 0,4,5
 436 18 436 18 538 18 c 0,6,7
 620 18 620 18 717 35 c 1,8,-1
 723 -23 l 1,9,10
 635 -38 635 -38 538 -38 c 0,11,12
 463 -38 463 -38 411.5 -28 c 128,-1,13
 360 -18 360 -18 333 1 c 128,-1,14
 306 20 306 20 295 42 c 128,-1,15
 284 64 284 64 284 94 c 0,16,17
 284 211 284 211 500 272 c 1,18,19
 490 304 490 304 473.5 314 c 128,-1,20
 457 324 457 324 435 324 c 0,21,22
 368 324 368 324 281 226 c 0,23,24
 250 190 250 190 229 160 c 1,25,-1
 178 193 l 1,26,27
 265 314 265 314 321 439 c 1,28,-1
 184 439 l 1,29,-1
 184 494 l 1,30,-1
 345 494 l 1,31,32
 357 524 357 524 377 582 c 1,33,-1
 438 568 l 1,34,35
 432 550 432 550 410 494 c 1,36,-1
 720 494 l 1,37,-1
 720 439 l 1,38,-1
 387 439 l 1,39,40
 363 385 363 385 342 343 c 1,41,42
 357 353 357 353 382 362 c 128,-1,43
 407 371 407 371 424.5 375 c 128,-1,44
 442 379 442 379 445 379 c 1,45,-1
 444 379 l 1,46,47
 468 379 468 379 488 371 c 128,-1,48
 508 363 508 363 519 354 c 128,-1,49
 530 345 530 345 539.5 330 c 128,-1,50
 549 315 549 315 552 307.5 c 128,-1,51
 555 300 555 300 560 288 c 1,52,53
 641 306 641 306 726 316 c 1,54,-1
 732 259 l 1,55,56
 617 243 617 243 573 233 c 1,57,58
 581 178 581 178 581 96 c 2,59,-1
 581 92 l 1,60,-1
 516 92 l 1,61,-1
 516 96 l 2,62,63
 516 171 516 171 511 217 c 1,0,1
EndSplineSet
Colour: ff00ff
EndChar

StartChar: u1B155
Encoding: 110933 110933 8
Width: 1000
Flags: W
LayerCount: 2
Fore
SplineSet
220 501 m 1,0,-1
 732 501 l 1,1,-1
 732 7 l 1,2,-1
 220 7 l 1,3,-1
 220 66 l 1,4,-1
 667 66 l 1,5,-1
 667 441 l 1,6,-1
 220 441 l 1,7,-1
 220 501 l 1,0,-1
EndSplineSet
Colour: ff00ff
EndChar

StartChar: u1B164
Encoding: 110948 110948 9
Width: 1000
Flags: W
LayerCount: 2
Fore
SplineSet
378 399 m 1,0,-1
 378 138 l 1,1,-1
 571 138 l 1,2,-1
 571 399 l 1,3,-1
 378 399 l 1,0,-1
313 399 m 1,4,-1
 198 399 l 1,5,-1
 198 460 l 1,6,-1
 571 460 l 1,7,-1
 571 553 l 1,8,-1
 635 553 l 1,9,-1
 635 460 l 1,10,-1
 763 460 l 1,11,-1
 763 399 l 1,12,-1
 635 399 l 1,13,-1
 635 138 l 1,14,-1
 789 138 l 1,15,-1
 789 77 l 1,16,-1
 635 77 l 1,17,-1
 635 -45 l 1,18,-1
 571 -45 l 1,19,-1
 571 77 l 1,20,-1
 167 77 l 1,21,-1
 167 138 l 1,22,-1
 313 138 l 1,23,-1
 313 399 l 1,4,-1
EndSplineSet
Colour: ff00ff
EndChar

StartChar: u1B165
Encoding: 110949 110949 10
Width: 1000
Flags: W
LayerCount: 2
Fore
SplineSet
215 449 m 1,0,-1
 215 509 l 1,1,-1
 755 509 l 1,2,-1
 755 453 l 1,3,4
 723 327 723 327 638 244 c 0,5,6
 600 211 600 211 588 201 c 1,7,-1
 543 248 l 1,8,9
 652 329 652 329 687 449 c 1,10,-1
 215 449 l 1,0,-1
763 60 m 1,11,-1
 763 0 l 1,12,-1
 193 0 l 1,13,-1
 193 60 l 1,14,-1
 440 60 l 1,15,-1
 440 379 l 1,16,-1
 505 379 l 1,17,-1
 505 60 l 1,18,-1
 763 60 l 1,11,-1
EndSplineSet
Colour: ff00ff
EndChar

StartChar: u1B166
Encoding: 110950 110950 11
Width: 1000
Flags: W
LayerCount: 2
Fore
SplineSet
209 512 m 1,0,-1
 745 512 l 1,1,-1
 745 497 l 2,2,3
 742 219 742 219 608 94 c 0,4,5
 501 -6 501 -6 285 -31 c 1,6,-1
 276 28 l 1,7,8
 423 44 423 44 512.5 98.5 c 128,-1,9
 602 153 602 153 642 259 c 1,10,-1
 240 259 l 1,11,-1
 240 318 l 1,12,-1
 660 318 l 1,13,14
 676 382 676 382 678 453 c 1,15,-1
 209 453 l 1,16,-1
 209 512 l 1,0,-1
EndSplineSet
Colour: ff00ff
EndChar

StartChar: u1B167
Encoding: 110951 110951 12
Width: 1000
Flags: W
LayerCount: 2
Fore
SplineSet
786 446 m 1,0,1
 779 405 779 405 768 367.5 c 128,-1,2
 757 330 757 330 737 285 c 128,-1,3
 717 240 717 240 690.5 202.5 c 128,-1,4
 664 165 664 165 622 127 c 128,-1,5
 580 89 580 89 529 61 c 128,-1,6
 478 33 478 33 406 12 c 128,-1,7
 334 -9 334 -9 249 -16 c 1,8,-1
 245 -16 l 1,9,-1
 235 46 l 1,10,11
 582 78 582 78 687 333 c 0,12,13
 708 384 708 384 724 460 c 1,14,-1
 786 446 l 1,0,1
218 469 m 1,15,-1
 248 526 l 1,16,17
 357 473 357 473 476 399 c 1,18,-1
 443 342 l 1,19,20
 352 401 352 401 218 469 c 1,15,-1
EndSplineSet
Colour: ff00ff
EndChar

StartChar: uni3042_uni3099.ccmp
Encoding: 1114112 -1 13
Width: 1000
GlyphClass: 2
Flags: W
LayerCount: 2
Fore
SplineSet
785 745 m 1,0,-1
 836 773 l 1,1,2
 876 707 876 707 915 633 c 1,3,-1
 863 608 l 1,4,5
 820 688 820 688 785 745 c 1,0,-1
662 731 m 1,6,-1
 712 757 l 1,7,8
 756 685 756 685 788 622 c 1,9,-1
 759 607 l 1,10,-1
 788 607 l 1,11,-1
 788 549 l 1,12,-1
 381 549 l 1,13,-1
 381 431 l 1,14,15
 443 443 443 443 502 443 c 0,16,17
 690 442 690 442 773 341 c 0,18,19
 819 282 819 282 821 198 c 0,20,21
 820 69 820 69 710 -7 c 0,22,23
 646 -49 646 -49 558 -66 c 1,24,-1
 541 -6 l 1,25,26
 679 20 679 20 732 109 c 0,27,28
 755 152 755 152 754 198 c 0,29,30
 752 317 752 317 640 360 c 1,31,32
 572 164 572 164 438 58 c 0,33,34
 338 -21 338 -21 238 -21 c 128,-1,35
 138 -21 138 -21 103 60 c 0,36,37
 89 94 89 94 87 139 c 0,38,39
 88 266 88 266 195 350 c 0,40,41
 250 392 250 392 315 414 c 1,42,-1
 315 549 l 1,43,-1
 120 549 l 1,44,-1
 120 607 l 5,45,-1
 315 607 l 1,46,-1
 315 722 l 1,47,-1
 381 722 l 1,48,-1
 381 607 l 1,49,-1
 733 607 l 1,50,51
 705 660 705 660 662 731 c 1,6,-1
315 348 m 1,52,53
 203 301 203 301 167 214 c 0,54,55
 153 177 153 177 154 146 c 0,56,57
 155 57 155 57 221 42 c 0,58,59
 233 39 233 39 245 39 c 0,60,61
 281 39 281 39 315 54 c 1,62,-1
 315 348 l 1,52,53
579 377 m 1,63,64
 540 382 540 382 502 382 c 0,65,66
 434 382 434 382 381 369 c 1,67,-1
 381 92 l 1,68,69
 495 176 495 176 560 330 c 0,70,71
 573 358 573 358 579 377 c 1,63,64
EndSplineSet
Colour: ff00ff
EndChar

StartChar: uni3044_uni3099.ccmp
Encoding: 1114113 -1 14
Width: 1000
GlyphClass: 2
Flags: W
LayerCount: 2
Fore
SplineSet
785 740 m 1,0,-1
 836 766 l 1,1,2
 880 694 880 694 915 628 c 1,3,-1
 863 602 l 1,4,5
 822 678 822 678 785 740 c 1,0,-1
662 724 m 1,6,-1
 712 751 l 1,7,8
 753 684 753 684 788 615 c 1,9,-1
 738 590 l 1,10,11
 709 648 709 648 662 724 c 1,6,-1
238 621 m 1,12,13
 200 476 200 476 199 318 c 0,14,15
 200 179 200 179 258 90 c 0,16,17
 293 41 293 41 325 39 c 0,18,19
 361 41 361 41 410 111 c 0,20,21
 452 174 452 174 487 265 c 1,22,-1
 551 240 l 1,23,24
 491 73 491 73 402 4 c 0,25,26
 359 -30 359 -30 321 -30 c 0,27,28
 260 -29 260 -29 205 48 c 0,29,30
 134 152 134 152 129 306 c 1,31,-1
 129 318 l 2,32,33
 129 489 129 489 170 630 c 1,34,-1
 238 621 l 1,12,13
760 560 m 1,35,36
 834 384 834 384 848 152 c 0,37,38
 851 107 851 107 851 64 c 1,39,-1
 781 64 l 1,40,41
 781 325 781 325 695 540 c 1,42,-1
 760 560 l 1,35,36
EndSplineSet
Colour: ff00ff
EndChar

StartChar: uni3046_uni309A.ccmp
Encoding: 1114114 -1 15
Width: 1000
Flags: W
LayerCount: 2
Fore
SplineSet
898 634 m 0,0,1
 897 572 897 572 849 538 c 0,2,3
 818 516 818 516 780 516 c 0,4,5
 717 517 717 517 683 565 c 0,6,7
 661 596 661 596 662 634 c 0,8,9
 663 697 663 697 711 731 c 0,10,11
 742 753 742 753 780 753 c 0,12,13
 841 752 841 752 876 703 c 0,14,15
 898 672 898 672 898 634 c 0,0,1
847 634 m 0,16,17
 846 673 846 673 813 692 c 0,18,19
 798 701 798 701 780 701 c 0,20,21
 738 700 738 700 722 666 c 0,22,23
 713 647 713 647 713 634 c 0,24,25
 712 596 712 596 747 576 c 0,26,27
 762 567 762 567 780 567 c 0,28,29
 818 568 818 568 838 602 c 0,30,31
 847 618 847 618 847 634 c 0,16,17
243 639 m 1,32,-1
 251 701 l 1,33,34
 449 667 449 667 621 667 c 1,35,-1
 621 603 l 1,36,37
 452 604 452 604 243 639 c 1,32,-1
125 419 m 1,38,39
 348 474 348 474 518 476 c 2,40,-1
 530 476 l 2,41,42
 748 475 748 475 789 346 c 0,43,44
 796 322 796 322 796 291 c 0,45,46
 795 141 795 141 640 53 c 0,47,48
 511 -20 511 -20 306 -36 c 1,49,-1
 290 27 l 1,50,51
 566 53 566 53 674 166 c 0,52,53
 727 223 727 223 726 288 c 0,54,55
 723 411 723 411 526 412 c 0,56,57
 379 412 379 412 144 358 c 0,58,59
 141 357 141 357 139 357 c 2,60,-1
 125 419 l 1,38,39
EndSplineSet
Colour: ff00ff
EndChar

StartChar: uni3048_uni3099.ccmp
Encoding: 1114115 -1 16
Width: 1000
GlyphClass: 2
Flags: W
LayerCount: 2
Fore
SplineSet
785 745 m 1,0,-1
 836 773 l 1,1,2
 876 707 876 707 915 633 c 1,3,-1
 863 608 l 1,4,5
 820 688 820 688 785 745 c 1,0,-1
662 731 m 1,6,-1
 712 757 l 1,7,8
 756 685 756 685 788 622 c 1,9,-1
 738 596 l 1,10,11
 710 653 710 653 662 731 c 1,6,-1
247 634 m 1,12,-1
 255 694 l 1,13,14
 464 661 464 661 657 662 c 1,15,-1
 657 599 l 1,16,17
 479 599 479 599 247 634 c 1,12,-1
151 494 m 1,18,-1
 716 494 l 1,19,-1
 716 427 l 1,20,-1
 490 241 l 1,21,-1
 491 240 l 1,22,23
 503 242 503 242 506 242 c 0,24,25
 542 242 542 242 563 206 c 0,26,27
 579 176 579 176 593 120 c 0,28,29
 610 54 610 54 635 37 c 0,30,31
 655 26 655 26 697 26 c 0,32,33
 758 26 758 26 813 42 c 1,34,-1
 825 -18 l 1,35,36
 758 -36 758 -36 691 -36 c 0,37,38
 605 -35 605 -35 570 2 c 0,39,40
 546 30 546 30 533 84 c 0,41,42
 510 173 510 173 479 187 c 0,43,44
 471 191 471 191 460 190 c 0,45,46
 435 189 435 189 411 174 c 0,47,48
 367 146 367 146 132 -44 c 1,49,-1
 92 7 l 1,50,-1
 619 432 l 1,51,-1
 618 434 l 1,52,-1
 151 434 l 1,53,-1
 151 494 l 1,18,-1
EndSplineSet
Colour: ff00ff
EndChar

StartChar: uni304A_uni3099.ccmp
Encoding: 1114116 -1 17
Width: 1000
GlyphClass: 2
Flags: W
LayerCount: 2
Fore
SplineSet
785 745 m 1,0,-1
 836 773 l 1,1,2
 876 707 876 707 915 633 c 1,3,-1
 863 608 l 1,4,5
 820 688 820 688 785 745 c 1,0,-1
662 731 m 1,6,-1
 712 757 l 1,7,8
 756 685 756 685 788 622 c 1,9,-1
 748 601 l 1,10,11
 814 525 814 525 868 441 c 1,12,-1
 818 409 l 1,13,14
 758 502 758 502 672 594 c 1,15,-1
 719 632 l 1,16,17
 695 677 695 677 662 731 c 1,6,-1
336 309 m 1,18,19
 204 278 204 278 160 201 c 0,20,21
 145 172 145 172 145 143 c 0,22,23
 146 91 146 91 195 52 c 0,24,25
 234 23 234 23 272 23 c 0,26,27
 321 24 321 24 332 57 c 0,28,29
 336 70 336 70 336 89 c 2,30,-1
 336 309 l 1,18,19
111 598 m 1,31,-1
 336 598 l 1,32,-1
 336 722 l 1,33,-1
 402 722 l 1,34,-1
 402 598 l 1,35,-1
 636 598 l 1,36,-1
 636 540 l 1,37,-1
 402 540 l 1,38,-1
 402 384 l 1,39,40
 451 389 451 389 484 389 c 0,41,42
 642 389 642 389 727 308 c 0,43,44
 784 253 784 253 784 185 c 0,45,46
 782 6 782 6 595 -41 c 0,47,48
 573 -46 573 -46 528 -52 c 1,49,-1
 514 9 l 1,50,51
 714 33 714 33 716 182 c 0,52,53
 716 242 716 242 650 284 c 0,54,55
 582 325 582 325 484 325 c 0,56,57
 448 325 448 325 402 320 c 1,58,-1
 402 88 l 2,59,60
 401 -1 401 -1 349 -24 c 0,61,62
 321 -36 321 -36 278 -36 c 0,63,64
 192 -35 192 -35 131 25 c 0,65,66
 80 77 80 77 78 143 c 0,67,68
 79 240 79 240 172 307 c 0,69,70
 238 353 238 353 336 374 c 1,71,-1
 336 540 l 1,72,-1
 111 540 l 1,73,-1
 111 598 l 1,31,-1
EndSplineSet
Colour: ff00ff
EndChar

StartChar: uni3055_uni309A.ccmp
Encoding: 1114117 -1 18
Width: 1000
Flags: W
LayerCount: 2
Fore
SplineSet
910 639 m 0,0,1
 909 577 909 577 861 543 c 0,2,3
 830 521 830 521 792 521 c 0,4,5
 765 521 765 521 743 531 c 1,6,7
 691 529 691 529 613 525 c 1,8,9
 645 387 645 387 727 263 c 1,10,-1
 666 227 l 1,11,12
 568 294 568 294 442 302 c 1,13,-1
 422 302 l 2,14,15
 287 302 287 302 246 229 c 0,16,17
 231 202 231 202 231 169 c 0,18,19
 234 9 234 9 497 9 c 0,20,21
 588 9 588 9 712 30 c 1,22,-1
 723 -31 l 1,23,24
 616 -52 616 -52 497 -52 c 0,25,26
 237 -51 237 -51 176 90 c 0,27,28
 161 125 161 125 161 172 c 0,29,30
 162 284 162 284 264 333 c 0,31,32
 328 363 328 363 418 363 c 0,33,34
 523 363 523 363 623 316 c 1,35,-1
 624 317 l 1,36,37
 572 411 572 411 547 524 c 1,38,39
 351 518 351 518 109 516 c 1,40,-1
 109 577 l 1,41,42
 357 579 357 579 536 584 c 1,43,44
 527 635 527 635 522 706 c 1,45,-1
 588 709 l 1,46,47
 592 648 592 648 602 586 c 1,48,49
 643 587 643 587 684 589 c 1,50,51
 673 612 673 612 674 639 c 0,52,53
 675 702 675 702 723 736 c 0,54,55
 754 758 754 758 792 758 c 0,56,57
 853 757 853 757 888 708 c 0,58,59
 910 677 910 677 910 639 c 0,0,1
859 639 m 0,60,61
 858 678 858 678 825 697 c 0,62,63
 810 706 810 706 792 706 c 0,64,65
 750 705 750 705 734 671 c 0,66,67
 725 652 725 652 725 639 c 0,68,69
 724 601 724 601 759 581 c 0,70,71
 774 572 774 572 792 572 c 0,72,73
 830 573 830 573 850 607 c 0,74,75
 859 623 859 623 859 639 c 0,60,61
EndSplineSet
Colour: ff00ff
EndChar

StartChar: uni3057_uni309A.ccmp
Encoding: 1114118 -1 19
Width: 1000
Flags: W
LayerCount: 2
Fore
SplineSet
770 601 m 0,0,1
 769 539 769 539 721 505 c 0,2,3
 690 483 690 483 652 483 c 0,4,5
 589 484 589 484 555 532 c 0,6,7
 533 563 533 563 534 601 c 0,8,9
 535 664 535 664 583 698 c 0,10,11
 614 720 614 720 652 720 c 0,12,13
 713 719 713 719 748 670 c 0,14,15
 770 639 770 639 770 601 c 0,0,1
719 601 m 0,16,17
 718 640 718 640 685 659 c 0,18,19
 670 668 670 668 652 668 c 0,20,21
 610 667 610 667 594 633 c 0,22,23
 585 614 585 614 585 601 c 0,24,25
 584 563 584 563 619 543 c 0,26,27
 634 534 634 534 652 534 c 0,28,29
 690 535 690 535 710 569 c 0,30,31
 719 585 719 585 719 601 c 0,16,17
200 704 m 1,32,-1
 271 702 l 1,33,34
 261 486 261 486 261 291 c 0,35,36
 261 112 261 112 315 56 c 0,37,38
 357 18 357 18 444 18 c 0,39,40
 596 19 596 19 698 190 c 0,41,42
 728 243 728 243 751 301 c 1,43,-1
 815 277 l 1,44,45
 727 41 727 41 564 -25 c 0,46,47
 505 -48 505 -48 444 -48 c 0,48,49
 305 -47 305 -47 250 19 c 0,50,51
 190 95 190 95 190 291 c 0,52,53
 189 435 189 435 200 704 c 1,32,-1
EndSplineSet
Colour: ff00ff
EndChar

StartChar: uni3059_uni309A.ccmp
Encoding: 1114119 -1 20
Width: 1000
Flags: W
LayerCount: 2
Fore
SplineSet
75 622 m 1,0,-1
 514 622 l 1,1,-1
 514 740 l 1,2,-1
 581 740 l 1,3,-1
 581 622 l 1,4,-1
 851 622 l 1,5,-1
 851 564 l 1,6,-1
 581 564 l 1,7,-1
 581 360 l 1,8,9
 598 304 598 304 598 248 c 0,10,11
 597 79 597 79 482 8 c 0,12,13
 411 -35 411 -35 291 -52 c 1,14,-1
 281 12 l 1,15,16
 481 38 481 38 522 148 c 0,17,18
 532 177 532 177 534 210 c 2,19,-1
 534 222 l 1,20,-1
 532 222 l 1,21,22
 496 168 496 168 412 162 c 0,23,24
 404 161 404 161 393 161 c 0,25,26
 305 162 305 162 255 225 c 0,27,28
 217 273 217 273 217 334 c 0,29,30
 218 420 218 420 282 470 c 0,31,32
 330 507 330 507 393 507 c 0,33,34
 464 505 464 505 513 466 c 1,35,-1
 514 466 l 1,36,-1
 514 564 l 1,37,-1
 75 564 l 1,38,-1
 75 622 l 1,0,-1
285 334 m 0,39,40
 286 273 286 273 336 240 c 0,41,42
 366 221 366 221 403 221 c 0,43,44
 468 222 468 222 503 271 c 0,45,46
 522 299 522 299 522 334 c 0,47,48
 522 394 522 394 471 427 c 0,49,50
 441 446 441 446 403 446 c 0,51,52
 337 445 337 445 304 396 c 0,53,54
 285 368 285 368 285 334 c 0,39,40
897 401 m 0,55,56
 896 339 896 339 848 305 c 0,57,58
 817 283 817 283 779 283 c 0,59,60
 716 284 716 284 682 332 c 0,61,62
 660 363 660 363 661 401 c 0,63,64
 662 464 662 464 710 498 c 0,65,66
 741 520 741 520 779 520 c 0,67,68
 840 519 840 519 875 470 c 0,69,70
 897 439 897 439 897 401 c 0,55,56
846 401 m 0,71,72
 845 440 845 440 812 459 c 0,73,74
 797 468 797 468 779 468 c 0,75,76
 737 467 737 467 721 433 c 0,77,78
 712 414 712 414 712 401 c 0,79,80
 711 363 711 363 746 343 c 0,81,82
 761 334 761 334 779 334 c 0,83,84
 817 335 817 335 837 369 c 0,85,86
 846 385 846 385 846 401 c 0,71,72
EndSplineSet
Colour: ff00ff
EndChar

StartChar: uni305B_uni309A.ccmp
Encoding: 1114120 -1 21
Width: 1000
Flags: W
LayerCount: 2
Fore
SplineSet
921 635 m 0,0,1
 920 573 920 573 872 539 c 0,2,3
 861 532 861 532 850 527 c 1,4,-1
 852 471 l 1,5,6
 723 464 723 464 665 464 c 1,7,-1
 665 314 l 2,8,9
 665 229 665 229 640 210 c 0,10,11
 621 196 621 196 580 196 c 0,12,13
 532 196 532 196 441 223 c 0,14,15
 411 232 411 232 402 236 c 1,16,-1
 420 297 l 1,17,18
 510 269 510 269 551 263 c 0,19,20
 565 261 565 261 568 261 c 0,21,22
 593 262 593 262 596 269 c 0,23,24
 600 277 600 277 600 326 c 2,25,-1
 600 461 l 1,26,27
 439 458 439 458 278 455 c 1,28,-1
 278 173 l 2,29,30
 278 82 278 82 305 55 c 0,31,32
 338 22 338 22 440 17 c 0,33,34
 458 16 458 16 496 16 c 0,35,36
 634 16 634 16 748 35 c 1,37,-1
 755 -27 l 1,38,39
 645 -46 645 -46 496 -46 c 0,40,41
 332 -46 332 -46 276 -10 c 0,42,43
 224 24 224 24 214 115 c 0,44,45
 211 141 211 141 211 173 c 2,46,-1
 211 454 l 1,47,48
 171 454 171 454 142 453 c 2,49,-1
 74 453 l 1,50,-1
 74 514 l 1,51,-1
 142 514 l 2,52,53
 174 515 174 515 211 515 c 1,54,-1
 211 694 l 1,55,-1
 278 694 l 1,56,-1
 278 515 l 1,57,-1
 600 522 l 1,58,-1
 600 719 l 1,59,-1
 665 719 l 1,60,-1
 665 524 l 1,61,-1
 751 528 l 1,62,63
 724 540 724 540 706 566 c 0,64,65
 684 597 684 597 685 635 c 0,66,67
 686 698 686 698 734 732 c 0,68,69
 765 754 765 754 803 754 c 0,70,71
 864 753 864 753 899 704 c 0,72,73
 921 673 921 673 921 635 c 0,0,1
870 635 m 0,74,75
 869 674 869 674 836 693 c 0,76,77
 821 702 821 702 803 702 c 0,78,79
 761 701 761 701 745 667 c 0,80,81
 736 648 736 648 736 635 c 0,82,83
 735 597 735 597 770 577 c 0,84,85
 785 568 785 568 803 568 c 0,86,87
 841 569 841 569 861 603 c 0,88,89
 870 619 870 619 870 635 c 0,74,75
EndSplineSet
Colour: ff00ff
EndChar

StartChar: uni305D_uni309A.ccmp
Encoding: 1114121 -1 22
Width: 1000
Flags: W
LayerCount: 2
Fore
SplineSet
286 396 m 1,0,-1
 286 394 l 1,1,-1
 822 434 l 1,2,-1
 826 373 l 1,3,-1
 600 357 l 1,4,5
 423 293 423 293 382 195 c 0,6,7
 372 170 372 170 372 144 c 0,8,9
 375 21 375 21 603 20 c 0,10,11
 680 20 680 20 738 32 c 1,12,-1
 746 -30 l 1,13,14
 678 -43 678 -43 603 -43 c 0,15,16
 333 -42 333 -42 302 103 c 0,17,18
 298 118 298 118 299 136 c 0,19,20
 299 242 299 242 431 325 c 0,21,22
 449 336 449 336 471 347 c 1,23,-1
 471 349 l 1,24,-1
 68 318 l 1,25,-1
 64 379 l 1,26,27
 222 391 222 391 436 529 c 0,28,29
 506 574 506 574 565 620 c 1,30,-1
 564 622 l 1,31,-1
 208 622 l 1,32,-1
 208 682 l 1,33,-1
 673 682 l 1,34,-1
 677 623 l 1,35,36
 461 469 461 469 286 396 c 1,0,-1
933 580 m 0,37,38
 932 518 932 518 884 484 c 0,39,40
 853 462 853 462 815 462 c 0,41,42
 752 463 752 463 718 511 c 0,43,44
 696 542 696 542 697 580 c 0,45,46
 698 643 698 643 746 677 c 0,47,48
 777 699 777 699 815 699 c 0,49,50
 876 698 876 698 911 649 c 0,51,52
 933 618 933 618 933 580 c 0,37,38
882 580 m 0,53,54
 881 619 881 619 848 638 c 0,55,56
 833 647 833 647 815 647 c 0,57,58
 773 646 773 646 757 612 c 0,59,60
 748 593 748 593 748 580 c 0,61,62
 747 542 747 542 782 522 c 0,63,64
 797 513 797 513 815 513 c 0,65,66
 853 514 853 514 873 548 c 0,67,68
 882 564 882 564 882 580 c 0,53,54
EndSplineSet
Colour: ff00ff
EndChar

StartChar: uni3063_uni309A.ccmp
Encoding: 1114122 -1 23
Width: 1000
Flags: W
LayerCount: 2
Fore
SplineSet
870 583 m 0,0,1
 869 521 869 521 821 487 c 0,2,3
 790 465 790 465 752 465 c 0,4,5
 689 466 689 466 655 514 c 0,6,7
 633 545 633 545 634 583 c 0,8,9
 635 646 635 646 683 680 c 0,10,11
 714 702 714 702 752 702 c 0,12,13
 813 701 813 701 848 652 c 0,14,15
 870 621 870 621 870 583 c 0,0,1
819 583 m 0,16,17
 818 622 818 622 785 641 c 0,18,19
 770 650 770 650 752 650 c 0,20,21
 710 649 710 649 694 615 c 0,22,23
 685 596 685 596 685 583 c 0,24,25
 684 545 684 545 719 525 c 0,26,27
 734 516 734 516 752 516 c 0,28,29
 790 517 790 517 810 551 c 0,30,31
 819 567 819 567 819 583 c 0,16,17
140 439 m 1,32,33
 361 495 361 495 466 494 c 0,34,35
 740 491 740 491 741 264 c 0,36,37
 739 29 739 29 409 -9 c 0,38,39
 350 -16 350 -16 274 -16 c 1,40,-1
 271 46 l 1,41,42
 640 47 640 47 669 226 c 0,43,44
 672 243 672 243 671 258 c 0,45,46
 669 398 669 398 534 423 c 0,47,48
 504 428 504 428 460 430 c 0,49,50
 363 430 363 430 154 376 c 1,51,-1
 140 439 l 1,32,33
EndSplineSet
Colour: ff00ff
EndChar

StartChar: uni3064_uni309A.ccmp
Encoding: 1114123 -1 24
Width: 1000
Flags: W
LayerCount: 2
Fore
SplineSet
894 623 m 0,0,1
 893 561 893 561 845 527 c 0,2,3
 818 508 818 508 785 505 c 1,4,5
 842 436 842 436 843 321 c 0,6,7
 843 75 843 75 543 3 c 0,8,9
 426 -25 426 -25 263 -25 c 1,10,-1
 259 41 l 1,11,12
 749 42 749 42 768 294 c 0,13,14
 769 305 769 305 768 314 c 0,15,16
 766 490 766 490 605 528 c 0,17,18
 554 539 554 539 495 539 c 0,19,20
 371 539 371 539 111 471 c 1,21,-1
 95 537 l 1,22,23
 362 607 362 607 500 607 c 0,24,25
 595 606 595 606 664 584 c 1,26,27
 658 603 658 603 658 623 c 0,28,29
 659 686 659 686 707 720 c 0,30,31
 738 742 738 742 776 742 c 0,32,33
 837 741 837 741 872 692 c 0,34,35
 894 661 894 661 894 623 c 0,0,1
843 623 m 0,36,37
 842 662 842 662 809 681 c 0,38,39
 794 690 794 690 776 690 c 0,40,41
 734 689 734 689 718 655 c 0,42,43
 709 636 709 636 709 623 c 0,44,45
 708 585 708 585 743 565 c 0,46,47
 758 556 758 556 776 556 c 0,48,49
 814 557 814 557 834 591 c 0,50,51
 843 607 843 607 843 623 c 0,36,37
EndSplineSet
Colour: ff00ff
EndChar

StartChar: uni3068_uni309A.ccmp
Encoding: 1114124 -1 25
Width: 1000
Flags: W
LayerCount: 2
Fore
SplineSet
848 633 m 0,0,1
 847 571 847 571 799 537 c 0,2,3
 781 524 781 524 760 519 c 1,4,-1
 773 461 l 1,5,6
 272 345 272 345 228 186 c 0,7,8
 224 172 224 172 224 157 c 0,9,10
 227 13 227 13 495 11 c 0,11,12
 622 11 622 11 773 32 c 1,13,-1
 780 -31 l 1,14,15
 624 -52 624 -52 495 -52 c 0,16,17
 220 -51 220 -51 164 84 c 0,18,19
 152 118 152 118 152 154 c 0,20,21
 155 275 155 275 315 370 c 1,22,23
 275 537 275 537 249 687 c 1,24,-1
 320 697 l 1,25,26
 348 534 348 534 382 404 c 1,27,28
 517 466 517 466 722 515 c 1,29,30
 665 519 665 519 633 564 c 0,31,32
 611 595 611 595 612 633 c 0,33,34
 613 696 613 696 661 730 c 0,35,36
 692 752 692 752 730 752 c 0,37,38
 791 751 791 751 826 702 c 0,39,40
 848 671 848 671 848 633 c 0,0,1
797 633 m 0,41,42
 796 672 796 672 763 691 c 0,43,44
 748 700 748 700 730 700 c 0,45,46
 688 699 688 699 672 665 c 0,47,48
 663 646 663 646 663 633 c 0,49,50
 662 595 662 595 697 575 c 0,51,52
 712 566 712 566 730 566 c 0,53,54
 768 567 768 567 788 601 c 0,55,56
 797 617 797 617 797 633 c 0,41,42
EndSplineSet
Colour: ff00ff
EndChar

StartChar: uni3089_uni309A.ccmp
Encoding: 1114125 -1 26
Width: 1000
Flags: W
LayerCount: 2
Fore
SplineSet
881 634 m 0,0,1
 880 572 880 572 832 538 c 0,2,3
 801 516 801 516 763 516 c 0,4,5
 702 517 702 517 666 565 c 0,6,7
 661 571 661 571 658 578 c 1,8,9
 459 579 459 579 266 606 c 1,10,-1
 273 666 l 1,11,12
 465 641 465 641 645 639 c 1,13,14
 648 696 648 696 694 731 c 0,15,16
 725 753 725 753 763 753 c 0,17,18
 824 752 824 752 859 703 c 0,19,20
 881 672 881 672 881 634 c 0,0,1
830 634 m 0,21,22
 829 673 829 673 796 692 c 0,23,24
 781 701 781 701 763 701 c 0,25,26
 725 700 725 700 705 666 c 0,27,28
 698 651 698 651 696 634 c 0,29,30
 697 595 697 595 730 576 c 0,31,32
 745 567 745 567 763 567 c 0,33,34
 801 568 801 568 821 602 c 0,35,36
 830 618 830 618 830 634 c 0,21,22
273 506 m 1,37,38
 255 372 255 372 240 290 c 1,39,-1
 242 289 l 1,40,41
 336 361 336 361 460 386 c 0,42,43
 505 396 505 396 547 396 c 0,44,45
 800 393 800 393 802 193 c 0,46,47
 800 8 800 8 572 -38 c 0,48,49
 497 -53 497 -53 408 -52 c 0,50,51
 323 -52 323 -52 221 -41 c 1,52,-1
 224 20 l 1,53,54
 341 8 341 8 408 9 c 0,55,56
 704 9 704 9 723 171 c 0,57,58
 725 185 725 185 725 193 c 0,59,60
 723 318 723 318 577 334 c 0,61,62
 551 336 551 336 538 336 c 0,63,64
 434 335 434 335 311 269 c 0,65,66
 262 242 262 242 221 209 c 1,67,-1
 159 225 l 1,68,69
 183 357 183 357 204 513 c 1,70,-1
 273 506 l 1,37,38
EndSplineSet
Colour: ff00ff
EndChar

StartChar: uni308A_uni309A.ccmp
Encoding: 1114126 -1 27
Width: 1000
Flags: W
LayerCount: 2
Fore
SplineSet
881 634 m 0,0,1
 880 572 880 572 832 538 c 0,2,3
 801 516 801 516 763 516 c 0,4,5
 759 516 759 516 755 516 c 1,6,7
 779 452 779 452 779 363 c 0,8,9
 778 96 778 96 592 3 c 0,10,11
 477 -55 477 -55 279 -55 c 1,12,-1
 276 9 l 1,13,14
 541 10 541 10 638 125 c 0,15,16
 705 210 705 210 707 363 c 0,17,18
 707 562 707 562 581 585 c 0,19,20
 564 588 564 588 552 587 c 0,21,22
 462 586 462 586 382 502 c 0,23,24
 287 400 287 400 266 252 c 0,25,26
 263 232 263 232 263 214 c 1,27,-1
 195 214 l 1,28,-1
 195 673 l 1,29,-1
 263 673 l 1,30,-1
 263 425 l 1,31,-1
 265 425 l 1,32,33
 325 566 325 566 436 624 c 0,34,35
 494 655 494 655 558 655 c 0,36,37
 607 655 607 655 645 638 c 1,38,39
 648 696 648 696 694 731 c 0,40,41
 725 753 725 753 763 753 c 0,42,43
 824 752 824 752 859 703 c 0,44,45
 881 672 881 672 881 634 c 0,0,1
830 634 m 0,46,47
 829 673 829 673 796 692 c 0,48,49
 781 701 781 701 763 701 c 0,50,51
 725 700 725 700 705 666 c 0,52,53
 698 651 698 651 696 634 c 0,54,55
 697 595 697 595 730 576 c 0,56,57
 745 567 745 567 763 567 c 0,58,59
 801 568 801 568 821 602 c 0,60,61
 830 618 830 618 830 634 c 0,46,47
EndSplineSet
Colour: ff00ff
EndChar

StartChar: uni308B_uni309A.ccmp
Encoding: 1114127 -1 28
Width: 1000
Flags: W
LayerCount: 2
Fore
SplineSet
881 634 m 0,0,1
 880 572 880 572 832 538 c 0,2,3
 801 516 801 516 763 516 c 0,4,5
 705 517 705 517 670 560 c 1,6,-1
 374 382 l 1,7,-1
 375 381 l 1,8,9
 466 406 466 406 546 405 c 0,10,11
 814 404 814 404 813 207 c 0,12,13
 812 35 812 35 653 -26 c 0,14,15
 574 -56 574 -56 465 -55 c 0,16,17
 209 -52 209 -52 208 90 c 0,18,19
 208 154 208 154 273 189 c 0,20,21
 329 219 329 219 408 218 c 0,22,23
 599 215 599 215 599 87 c 0,24,25
 599 53 599 53 583 16 c 1,26,27
 739 55 739 55 738 200 c 0,28,29
 738 325 738 325 594 345 c 0,30,31
 558 350 558 350 525 350 c 0,32,33
 337 348 337 348 140 237 c 1,34,-1
 113 286 l 1,35,-1
 605 596 l 1,36,-1
 605 598 l 1,37,-1
 179 598 l 1,38,-1
 179 657 l 1,39,-1
 647 657 l 1,40,41
 655 702 655 702 694 731 c 0,42,43
 725 753 725 753 763 753 c 0,44,45
 824 752 824 752 859 703 c 0,46,47
 881 672 881 672 881 634 c 0,0,1
830 634 m 0,48,49
 829 673 829 673 796 692 c 0,50,51
 781 701 781 701 763 701 c 0,52,53
 725 700 725 700 705 666 c 0,54,55
 698 651 698 651 696 634 c 0,56,57
 697 595 697 595 730 576 c 0,58,59
 745 567 745 567 763 567 c 0,60,61
 801 568 801 568 821 602 c 0,62,63
 830 618 830 618 830 634 c 0,48,49
514 6 m 1,64,65
 537 51 537 51 536 81 c 0,66,67
 533 158 533 158 404 160 c 0,68,69
 312 160 312 160 284 115 c 0,70,71
 277 103 277 103 277 90 c 0,72,73
 277 18 277 18 412 6 c 0,74,75
 446 4 446 4 465 4 c 0,76,77
 476 4 476 4 514 6 c 1,64,65
EndSplineSet
Colour: ff00ff
EndChar

StartChar: uni308C_uni309A.ccmp
Encoding: 1114128 -1 29
Width: 1000
Flags: W
LayerCount: 2
Fore
SplineSet
881 634 m 0,0,1
 880 572 880 572 832 538 c 0,2,3
 801 516 801 516 763 516 c 0,4,5
 739 516 739 516 719 524 c 1,6,7
 730 484 730 484 729 421 c 0,8,9
 729 380 729 380 718 288 c 0,10,11
 708 218 708 218 708 157 c 0,12,13
 708 52 708 52 744 46 c 0,14,15
 748 45 748 45 752 45 c 0,16,17
 791 46 791 46 861 117 c 0,18,19
 867 122 867 122 872 128 c 1,20,-1
 909 80 l 1,21,22
 839 1 839 1 768 -20 c 0,23,24
 748 -25 748 -25 736 -25 c 0,25,26
 671 -24 671 -24 650 40 c 0,27,28
 638 80 638 80 638 151 c 0,29,30
 638 204 638 204 649 283 c 0,31,32
 659 362 659 362 659 414 c 0,33,34
 658 518 658 518 625 526 c 0,35,36
 621 527 621 527 616 527 c 0,37,38
 562 526 562 526 354 333 c 1,39,-1
 353 333 l 1,40,-1
 352 332 l 1,41,-1
 352 -73 l 1,42,-1
 285 -73 l 1,43,-1
 285 268 l 1,44,45
 169 154 169 154 104 89 c 1,46,-1
 60 134 l 1,47,48
 184 261 184 261 285 357 c 1,49,-1
 285 491 l 1,50,-1
 72 491 l 1,51,-1
 72 551 l 1,52,-1
 285 551 l 1,53,-1
 285 706 l 1,54,-1
 352 706 l 1,55,-1
 352 419 l 1,56,57
 530 582 530 582 615 596 c 0,58,59
 624 597 624 597 631 596 c 0,60,61
 642 596 642 596 651 594 c 1,62,63
 645 613 645 613 645 634 c 0,64,65
 646 695 646 695 694 731 c 0,66,67
 725 753 725 753 763 753 c 0,68,69
 824 752 824 752 859 703 c 0,70,71
 881 672 881 672 881 634 c 0,0,1
830 634 m 0,72,73
 829 673 829 673 796 692 c 0,74,75
 781 701 781 701 763 701 c 0,76,77
 725 700 725 700 705 666 c 0,78,79
 698 651 698 651 696 634 c 0,80,81
 697 595 697 595 730 576 c 0,82,83
 745 567 745 567 763 567 c 0,84,85
 801 568 801 568 821 602 c 0,86,87
 830 618 830 618 830 634 c 0,72,73
EndSplineSet
Colour: ff00ff
EndChar

StartChar: uni308D_uni309A.ccmp
Encoding: 1114129 -1 30
Width: 1000
Flags: W
LayerCount: 2
Fore
SplineSet
881 634 m 0,0,1
 880 572 880 572 832 538 c 0,2,3
 801 516 801 516 763 516 c 0,4,5
 706 517 706 517 671 559 c 1,6,-1
 363 369 l 1,7,-1
 364 367 l 1,8,9
 461 396 461 396 540 396 c 0,10,11
 798 395 798 395 809 218 c 1,12,-1
 809 204 l 2,13,14
 809 -34 809 -34 474 -45 c 1,15,-1
 445 -45 l 2,16,17
 370 -45 370 -45 265 -34 c 1,18,-1
 266 30 l 1,19,20
 359 19 359 19 440 19 c 0,21,22
 734 22 734 22 734 198 c 0,23,24
 734 310 734 310 600 333 c 0,25,26
 571 338 571 338 518 339 c 0,27,28
 414 339 414 339 189 249 c 0,29,30
 179 245 179 245 163 236 c 0,31,32
 145 226 145 226 137 222 c 1,33,-1
 111 272 l 1,34,-1
 596 589 l 1,35,-1
 596 591 l 1,36,-1
 188 591 l 1,37,-1
 188 650 l 1,38,-1
 646 650 l 1,39,40
 652 700 652 700 694 731 c 0,41,42
 725 753 725 753 763 753 c 0,43,44
 824 752 824 752 859 703 c 0,45,46
 881 672 881 672 881 634 c 0,0,1
830 634 m 0,47,48
 829 673 829 673 796 692 c 0,49,50
 781 701 781 701 763 701 c 0,51,52
 725 700 725 700 705 666 c 0,53,54
 698 651 698 651 696 634 c 0,55,56
 697 595 697 595 730 576 c 0,57,58
 745 567 745 567 763 567 c 0,59,60
 801 568 801 568 821 602 c 0,61,62
 830 618 830 618 830 634 c 0,47,48
EndSplineSet
Colour: ff00ff
EndChar

StartChar: uni308F_uni3099.ccmp
Encoding: 1114130 -1 31
Width: 1000
Flags: W
LayerCount: 2
Fore
SplineSet
72 558 m 1,0,-1
 266 558 l 1,1,-1
 266 707 l 1,2,-1
 329 707 l 1,3,-1
 329 458 l 1,4,5
 462 583 462 583 566 600 c 0,6,7
 589 604 589 604 609 603 c 0,8,9
 804 601 804 601 830 365 c 0,10,11
 834 327 834 327 833 285 c 0,12,13
 832 110 832 110 732 30 c 0,14,15
 668 -18 668 -18 581 -18 c 0,16,17
 507 -18 507 -18 441 15 c 1,18,-1
 462 74 l 1,19,20
 524 49 524 49 581 47 c 0,21,22
 692 48 692 48 738 147 c 0,23,24
 765 204 765 204 765 285 c 0,25,26
 764 485 764 485 671 527 c 0,27,28
 642 539 642 539 606 539 c 0,29,30
 519 538 519 538 414 448 c 0,31,32
 370 411 370 411 329 368 c 1,33,-1
 329 -61 l 1,34,-1
 266 -61 l 1,35,-1
 266 299 l 1,36,37
 193 216 193 216 104 106 c 1,38,-1
 56 148 l 1,39,40
 173 297 173 297 266 394 c 1,41,-1
 266 501 l 1,42,-1
 72 501 l 1,43,-1
 72 558 l 1,0,-1
785 740 m 5,44,-1
 836 766 l 5,45,46
 880 694 880 694 915 628 c 5,47,-1
 863 602 l 5,48,49
 822 678 822 678 785 740 c 5,44,-1
662 724 m 5,50,-1
 712 751 l 5,51,52
 753 684 753 684 788 615 c 5,53,-1
 738 590 l 5,54,55
 709 648 709 648 662 724 c 5,50,-1
EndSplineSet
Colour: ff00ff
EndChar

StartChar: uni3090_uni3099.ccmp
Encoding: 1114131 -1 32
Width: 1000
Flags: W
LayerCount: 2
Fore
SplineSet
172 626 m 1,0,-1
 172 683 l 1,1,-1
 538 683 l 1,2,-1
 538 626 l 1,3,4
 514 540 514 540 510 522 c 1,5,6
 670 516 670 516 762 417 c 0,7,8
 837 336 837 336 836 225 c 0,9,10
 835 65 835 65 748 -10 c 0,11,12
 698 -52 698 -52 636 -52 c 0,13,14
 550 -51 550 -51 507 6 c 0,15,16
 483 41 483 41 483 84 c 0,17,18
 483 157 483 157 546 195 c 0,19,20
 583 217 583 217 633 217 c 0,21,22
 706 215 706 215 768 162 c 1,23,24
 772 192 772 192 772 225 c 0,25,26
 771 339 771 339 681 405 c 0,27,28
 605 459 605 459 493 461 c 1,29,30
 393 110 393 110 318 24 c 0,31,32
 277 -21 277 -21 226 -21 c 0,33,34
 156 -21 156 -21 112 42 c 0,35,36
 72 98 72 98 72 176 c 0,37,38
 72 319 72 319 180 416 c 0,39,40
 283 506 283 506 441 520 c 1,41,42
 442 525 442 525 468 626 c 1,43,-1
 172 626 l 1,0,-1
752 97 m 1,44,45
 695 153 695 153 636 155 c 0,46,47
 574 154 574 154 554 113 c 0,48,49
 548 99 548 99 548 85 c 0,50,51
 549 34 549 34 598 16 c 0,52,53
 617 11 617 11 636 11 c 0,54,55
 717 12 717 12 752 97 c 1,44,45
424 457 m 1,56,57
 276 437 276 437 195 340 c 0,58,59
 136 267 136 267 136 176 c 0,60,61
 137 99 137 99 181 60 c 0,62,63
 203 43 203 43 224 43 c 0,64,65
 311 45 311 45 423 455 c 0,66,67
 424 457 424 457 424 457 c 1,56,57
746 723 m 5,68,-1
 797 749 l 5,69,70
 841 677 841 677 876 611 c 5,71,-1
 824 585 l 5,72,73
 783 661 783 661 746 723 c 5,68,-1
623 707 m 5,74,-1
 673 734 l 5,75,76
 714 667 714 667 749 598 c 5,77,-1
 699 573 l 5,78,79
 670 631 670 631 623 707 c 5,74,-1
EndSplineSet
Colour: ff00ff
EndChar

StartChar: uni3091_uni3099.ccmp
Encoding: 1114132 -1 33
Width: 1000
Flags: W
LayerCount: 2
Fore
SplineSet
640 707 m 1,0,-1
 690 734 l 1,1,2
 731 667 731 667 766 598 c 1,3,-1
 716 573 l 1,4,5
 707 591 707 591 697 610 c 1,6,-1
 418 516 l 1,7,-1
 419 514 l 1,8,9
 502 528 502 528 557 528 c 0,10,11
 740 527 740 527 784 445 c 0,12,13
 797 421 797 421 797 394 c 0,14,15
 797 289 797 289 653 244 c 0,16,17
 558 214 558 214 418 214 c 2,18,-1
 386 214 l 1,19,20
 331 180 331 180 261 117 c 1,21,-1
 262 115 l 1,22,23
 318 142 318 142 348 142 c 0,24,25
 388 141 388 141 421 92 c 0,26,27
 425 86 425 86 430 75 c 0,28,29
 457 24 457 24 474 17 c 0,30,31
 484 13 484 13 493 14 c 0,32,33
 534 15 534 15 581 66 c 0,34,35
 593 79 593 79 605 96 c 1,36,-1
 647 55 l 1,37,38
 597 -24 597 -24 526 -44 c 0,39,40
 512 -48 512 -48 497 -48 c 0,41,42
 426 -47 426 -47 391 12 c 0,43,44
 385 22 385 22 383 27 c 0,45,46
 361 69 361 69 344 77 c 0,47,48
 332 82 332 82 320 82 c 0,49,50
 249 81 249 81 166 10 c 0,51,52
 135 -17 135 -17 111 -46 c 1,53,-1
 58 -8 l 1,54,55
 183 139 183 139 297 222 c 1,56,57
 161 247 161 247 156 320 c 1,58,59
 158 362 158 362 214 390 c 0,60,61
 268 416 268 416 338 414 c 0,62,63
 501 409 501 409 504 323 c 0,64,65
 505 298 505 298 483 276 c 1,66,67
 708 287 708 287 726 379 c 0,68,69
 727 384 727 384 727 391 c 0,70,71
 725 439 725 439 666 457 c 0,72,73
 613 473 613 473 500 473 c 0,74,75
 330 473 330 473 119 411 c 1,76,-1
 100 464 l 1,77,-1
 561 617 l 1,78,-1
 561 619 l 1,79,-1
 184 619 l 1,80,-1
 184 676 l 1,81,-1
 659 676 l 1,82,83
 650 691 650 691 640 707 c 1,0,-1
763 723 m 1,84,-1
 814 749 l 1,85,86
 858 677 858 677 893 611 c 1,87,-1
 841 585 l 1,88,89
 800 661 800 661 763 723 c 1,84,-1
379 275 m 1,90,-1
 380 276 l 1,91,92
 427 302 427 302 432 318 c 0,93,94
 433 322 433 322 433 325 c 0,95,96
 430 358 430 358 338 358 c 0,97,98
 253 357 253 357 233 330 c 0,99,100
 229 325 229 325 229 320 c 0,101,102
 231 280 231 280 378 275 c 1,103,-1
 379 275 l 1,90,-1
627 156 m 1,104,-1
 679 190 l 1,105,106
 781 91 781 91 850 -18 c 1,107,-1
 793 -45 l 1,108,109
 733 48 733 48 637 146 c 2,110,-1
 627 156 l 1,104,-1
EndSplineSet
Colour: ff00ff
EndChar

StartChar: uni3092_uni3099.ccmp
Encoding: 1114133 -1 34
Width: 1000
Flags: W
LayerCount: 2
Fore
SplineSet
758 -27 m 1,0,1
 650 -45 650 -45 530 -45 c 0,2,3
 290 -44 290 -44 235 40 c 0,4,5
 215 71 215 71 215 116 c 0,6,7
 217 260 217 260 487 337 c 1,8,-1
 488 338 l 1,9,-1
 489 338 l 1,10,11
 468 404 468 404 421 411 c 0,12,13
 407 413 407 413 399 412 c 0,14,15
 316 411 316 411 200 287 c 0,16,17
 171 256 171 256 137 208 c 1,18,-1
 82 243 l 1,19,20
 194 399 194 399 265 558 c 1,21,-1
 87 558 l 1,22,-1
 87 616 l 1,23,-1
 289 616 l 1,24,25
 313 676 313 676 330 727 c 1,26,-1
 396 712 l 1,27,28
 375 653 375 653 359 616 c 1,29,-1
 656 616 l 5,30,-1
 656 558 l 5,31,-1
 335 558 l 1,32,33
 302 483 302 483 268 417 c 1,34,-1
 269 416 l 1,35,36
 348 471 348 471 411 471 c 0,37,38
 511 470 511 470 546 377 c 0,39,40
 552 361 552 361 554 354 c 1,41,42
 648 375 648 375 762 390 c 1,43,-1
 769 330 l 1,44,45
 640 313 640 313 567 296 c 1,46,47
 579 226 579 226 579 118 c 1,48,-1
 509 118 l 1,49,50
 509 218 509 218 500 279 c 1,51,52
 286 213 286 213 284 121 c 0,53,54
 283 63 283 63 340 39 c 0,55,56
 400 14 400 14 530 14 c 0,57,58
 628 14 628 14 752 34 c 1,59,-1
 758 -27 l 1,0,1
742 703 m 1,60,-1
 793 729 l 1,61,62
 837 657 837 657 872 591 c 1,63,-1
 820 565 l 1,64,65
 779 641 779 641 742 703 c 1,60,-1
619 687 m 1,66,-1
 669 714 l 1,67,68
 710 647 710 647 745 578 c 1,69,-1
 695 553 l 1,70,71
 666 611 666 611 619 687 c 1,66,-1
EndSplineSet
Colour: ff00ff
EndChar

StartChar: uni3093_uni3099.ccmp
Encoding: 1114134 -1 35
Width: 1000
Flags: W
LayerCount: 2
Fore
SplineSet
449 689 m 1,0,1
 376 515 376 515 296 312 c 1,2,-1
 298 312 l 1,3,4
 359 387 359 387 432 389 c 0,5,6
 514 389 514 389 552 269 c 0,7,8
 560 242 560 242 569 194 c 0,9,10
 592 66 592 66 623 37 c 0,11,12
 638 26 638 26 654 26 c 0,13,14
 725 28 725 28 782 184 c 0,15,16
 797 228 797 228 808 270 c 1,17,-1
 869 253 l 1,18,19
 803 4 803 4 691 -28 c 0,20,21
 670 -33 670 -33 653 -34 c 0,22,23
 575 -32 575 -32 538 57 c 0,24,25
 521 100 521 100 507 173 c 0,26,27
 483 299 483 299 450 322 c 0,28,29
 438 329 438 329 425 329 c 0,30,31
 348 329 348 329 272 203 c 0,32,33
 217 111 217 111 157 -42 c 1,34,-1
 96 -19 l 1,35,36
 173 177 173 177 388 709 c 1,37,-1
 449 689 l 1,0,1
642 686 m 1,38,-1
 701 718 l 1,39,40
 752 635 752 635 796 552 c 1,41,-1
 736 522 l 1,42,43
 704 583 704 583 642 686 c 1,38,-1
507 648 m 1,44,-1
 566 679 l 1,45,46
 617 596 617 596 659 515 c 1,47,-1
 600 486 l 1,48,49
 562 555 562 555 507 648 c 1,44,-1
EndSplineSet
Colour: ff00ff
EndChar

StartChar: uni30A2_uni3099.ccmp
Encoding: 1114135 -1 36
Width: 1000
GlyphClass: 2
Flags: W
LayerCount: 2
Fore
SplineSet
785 745 m 1,0,-1
 836 773 l 1,1,2
 876 707 876 707 915 633 c 1,3,-1
 863 608 l 1,4,5
 820 688 820 688 785 745 c 1,0,-1
662 731 m 1,6,-1
 712 757 l 1,7,8
 750 695 750 695 779 640 c 1,9,-1
 829 640 l 1,10,-1
 829 578 l 1,11,12
 785 421 785 421 649 322 c 0,13,14
 618 299 618 299 576 279 c 1,15,-1
 540 335 l 1,16,17
 706 420 706 420 754 578 c 1,18,-1
 110 578 l 1,19,-1
 110 640 l 1,20,-1
 715 640 l 1,21,22
 693 681 693 681 662 731 c 1,6,-1
378 491 m 1,23,-1
 448 491 l 1,24,25
 448 227 448 227 371 105 c 0,26,27
 311 11 311 11 195 -39 c 1,28,-1
 162 19 l 1,29,30
 279 69 279 69 329 173 c 0,31,32
 378 279 378 279 378 491 c 1,23,-1
EndSplineSet
Colour: ff00ff
EndChar

StartChar: uni30A4_uni3099.ccmp
Encoding: 1114136 -1 37
Width: 1000
GlyphClass: 2
Flags: W
LayerCount: 2
Fore
SplineSet
785 745 m 1,0,-1
 836 773 l 1,1,2
 876 707 876 707 915 633 c 1,3,-1
 863 608 l 1,4,5
 820 688 820 688 785 745 c 1,0,-1
662 731 m 1,6,-1
 712 757 l 1,7,8
 756 685 756 685 788 622 c 1,9,-1
 738 596 l 1,10,11
 710 653 710 653 662 731 c 1,6,-1
87 332 m 1,12,13
 335 367 335 367 559 501 c 0,14,15
 637 548 637 548 702 604 c 1,16,-1
 746 554 l 1,17,18
 657 477 657 477 543 416 c 1,19,-1
 543 -50 l 1,20,-1
 469 -50 l 1,21,-1
 469 379 l 1,22,23
 289 294 289 294 98 267 c 1,24,-1
 87 332 l 1,12,13
EndSplineSet
Colour: ff00ff
EndChar

StartChar: uni30A6_uni309A.ccmp
Encoding: 1114137 -1 38
Width: 1000
Flags: W
LayerCount: 2
Fore
SplineSet
918 634 m 0,0,1
 917 572 917 572 869 538 c 0,2,3
 842 519 842 519 809 516 c 1,4,-1
 809 421 l 2,5,6
 808 148 808 148 596 29 c 0,7,8
 475 -38 475 -38 294 -50 c 1,9,-1
 286 14 l 1,10,11
 639 38 639 38 719 277 c 0,12,13
 740 343 740 343 740 421 c 2,14,-1
 740 507 l 1,15,-1
 199 507 l 1,16,-1
 199 284 l 1,17,-1
 131 284 l 1,18,-1
 131 569 l 1,19,-1
 427 569 l 1,20,-1
 427 715 l 1,21,-1
 497 715 l 1,22,-1
 497 569 l 1,23,-1
 700 569 l 1,24,25
 681 598 681 598 682 634 c 0,26,27
 683 697 683 697 731 731 c 0,28,29
 762 753 762 753 800 753 c 0,30,31
 861 752 861 752 896 703 c 0,32,33
 918 672 918 672 918 634 c 0,0,1
867 634 m 0,34,35
 866 673 866 673 833 692 c 0,36,37
 818 701 818 701 800 701 c 0,38,39
 758 700 758 700 742 666 c 0,40,41
 733 647 733 647 733 634 c 0,42,43
 732 596 732 596 767 576 c 0,44,45
 775 571 775 571 784 569 c 2,46,-1
 809 569 l 1,47,-1
 809 568 l 1,48,49
 840 572 840 572 858 602 c 0,50,51
 867 618 867 618 867 634 c 0,34,35
EndSplineSet
Colour: ff00ff
EndChar

StartChar: uni30A8_uni3099.ccmp
Encoding: 1114138 -1 39
Width: 1000
GlyphClass: 2
Flags: W
LayerCount: 2
Fore
SplineSet
785 745 m 1,0,-1
 836 773 l 1,1,2
 876 707 876 707 915 633 c 1,3,-1
 863 608 l 1,4,5
 820 688 820 688 785 745 c 1,0,-1
662 731 m 1,6,-1
 712 757 l 1,7,8
 756 685 756 685 788 622 c 1,9,-1
 738 596 l 1,10,11
 710 653 710 653 662 731 c 1,6,-1
129 625 m 1,12,-1
 716 625 l 1,13,-1
 716 562 l 1,14,-1
 490 562 l 1,15,-1
 490 76 l 1,16,-1
 806 76 l 1,17,-1
 806 12 l 1,18,-1
 102 12 l 1,19,-1
 102 76 l 1,20,-1
 418 76 l 1,21,-1
 418 562 l 1,22,-1
 129 562 l 1,23,-1
 129 625 l 1,12,-1
EndSplineSet
Colour: ff00ff
EndChar

StartChar: uni30AA_uni3099.ccmp
Encoding: 1114139 -1 40
Width: 1000
GlyphClass: 2
Flags: W
LayerCount: 2
Fore
SplineSet
785 745 m 1,0,-1
 836 773 l 1,1,2
 876 707 876 707 915 633 c 1,3,-1
 863 608 l 1,4,5
 820 688 820 688 785 745 c 1,0,-1
662 731 m 1,6,-1
 712 757 l 1,7,8
 756 685 756 685 788 622 c 1,9,-1
 738 596 l 1,10,11
 710 653 710 653 662 731 c 1,6,-1
93 569 m 1,12,-1
 559 569 l 1,13,-1
 559 714 l 1,14,-1
 627 714 l 1,15,-1
 627 569 l 1,16,-1
 833 569 l 1,17,-1
 833 507 l 1,18,-1
 627 507 l 1,19,-1
 627 93 l 2,20,21
 627 18 627 18 606 -3 c 0,22,23
 582 -23 582 -23 511 -23 c 0,24,25
 442 -23 442 -23 358 -14 c 1,26,-1
 362 50 l 1,27,28
 438 41 438 41 506 41 c 0,29,30
 545 42 545 42 553 55 c 0,31,32
 558 65 558 65 559 94 c 2,33,-1
 559 431 l 1,34,35
 373 234 373 234 152 102 c 0,36,37
 148 99 148 99 139 95 c 0,38,39
 130 89 130 89 126 87 c 1,40,-1
 95 143 l 1,41,42
 314 267 314 267 500 461 c 0,43,44
 528 491 528 491 542 507 c 1,45,-1
 93 507 l 1,46,-1
 93 569 l 1,12,-1
EndSplineSet
Colour: ff00ff
EndChar

StartChar: uni30B5_uni309A.ccmp
Encoding: 1114140 -1 41
Width: 1000
Flags: W
LayerCount: 2
Fore
SplineSet
917 634 m 0,0,1
 916 572 916 572 868 538 c 0,2,3
 861 533 861 533 854 529 c 1,4,-1
 854 470 l 1,5,-1
 653 470 l 1,6,-1
 653 412 l 2,7,8
 653 188 653 188 563 89 c 0,9,10
 488 6 488 6 277 -36 c 0,11,12
 272 -37 272 -37 264 -38 c 2,13,-1
 251 -39 l 1,14,-1
 239 25 l 1,15,16
 409 42 409 42 491 116 c 128,-1,17
 573 190 573 190 580 343 c 0,18,19
 582 387 582 387 582 412 c 2,20,-1
 582 470 l 1,21,-1
 289 470 l 1,22,-1
 289 264 l 1,23,-1
 220 264 l 1,24,-1
 220 470 l 1,25,-1
 66 470 l 1,26,-1
 66 534 l 1,27,-1
 220 534 l 1,28,-1
 220 698 l 1,29,-1
 289 698 l 1,30,-1
 289 534 l 1,31,-1
 582 534 l 1,32,-1
 582 698 l 1,33,-1
 653 698 l 1,34,-1
 653 534 l 1,35,-1
 734 534 l 1,36,37
 716 546 716 546 702 565 c 0,38,39
 680 596 680 596 681 634 c 0,40,41
 682 697 682 697 730 731 c 0,42,43
 761 753 761 753 799 753 c 0,44,45
 860 752 860 752 895 703 c 0,46,47
 917 672 917 672 917 634 c 0,0,1
866 634 m 0,48,49
 865 673 865 673 832 692 c 0,50,51
 817 701 817 701 799 701 c 0,52,53
 757 700 757 700 741 666 c 0,54,55
 732 647 732 647 732 634 c 0,56,57
 731 596 731 596 766 576 c 0,58,59
 781 567 781 567 799 567 c 0,60,61
 837 568 837 568 857 602 c 0,62,63
 866 618 866 618 866 634 c 0,48,49
EndSplineSet
Colour: ff00ff
EndChar

StartChar: uni30B7_uni309A.ccmp
Encoding: 1114141 -1 42
Width: 1000
Flags: W
LayerCount: 2
Fore
SplineSet
168 30 m 1,0,1
 459 56 459 56 597 173 c 0,2,3
 733 289 733 289 781 533 c 9,4,-1
 847 520 l 17,5,6
 793 247 793 247 635 117 c 0,7,8
 478 -10 478 -10 179 -36 c 1,9,-1
 168 30 l 1,0,1
131 384 m 1,10,-1
 144 449 l 1,11,12
 330 416 330 416 440 393 c 1,13,-1
 427 328 l 1,14,15
 181 376 181 376 131 384 c 1,10,-1
170 608 m 1,16,-1
 183 673 l 1,17,18
 361 644 361 644 493 617 c 1,19,-1
 480 552 l 1,20,21
 337 582 337 582 170 608 c 1,16,-1
888 664 m 0,22,23
 887 602 887 602 839 568 c 0,24,25
 808 546 808 546 770 546 c 0,26,27
 707 547 707 547 673 595 c 0,28,29
 651 626 651 626 652 664 c 0,30,31
 653 727 653 727 701 761 c 0,32,33
 732 783 732 783 770 783 c 0,34,35
 831 782 831 782 866 733 c 0,36,37
 888 702 888 702 888 664 c 0,22,23
837 664 m 0,38,39
 836 703 836 703 803 722 c 0,40,41
 788 731 788 731 770 731 c 0,42,43
 728 730 728 730 712 696 c 0,44,45
 703 677 703 677 703 664 c 0,46,47
 702 626 702 626 737 606 c 0,48,49
 752 597 752 597 770 597 c 0,50,51
 808 598 808 598 828 632 c 0,52,53
 837 648 837 648 837 664 c 0,38,39
EndSplineSet
Colour: ff00ff
EndChar

StartChar: uni30B9_uni309A.ccmp
Encoding: 1114142 -1 43
Width: 1000
Flags: W
LayerCount: 2
Fore
SplineSet
851 664 m 0,0,1
 850 703 850 703 817 722 c 0,2,3
 802 731 802 731 784 731 c 0,4,5
 742 730 742 730 726 696 c 0,6,7
 717 677 717 677 717 664 c 0,8,9
 716 626 716 626 751 606 c 0,10,11
 766 597 766 597 784 597 c 0,12,13
 822 598 822 598 842 632 c 0,14,15
 851 648 851 648 851 664 c 0,0,1
902 664 m 0,16,17
 901 602 901 602 853 568 c 0,18,19
 822 546 822 546 784 546 c 0,20,21
 755 546 755 546 733 557 c 1,22,23
 669 413 669 413 545 280 c 1,24,25
 683 152 683 152 817 13 c 1,26,-1
 767 -35 l 1,27,28
 616 123 616 123 498 233 c 1,29,30
 346 87 346 87 130 -24 c 1,31,-1
 99 35 l 1,32,33
 416 199 416 199 584 436 c 0,34,35
 634 508 634 508 665 578 c 1,36,-1
 178 578 l 1,37,-1
 178 643 l 1,38,-1
 667 643 l 1,39,40
 665 653 665 653 666 664 c 0,41,42
 667 727 667 727 715 761 c 0,43,44
 746 783 746 783 784 783 c 0,45,46
 845 782 845 782 880 733 c 0,47,48
 902 702 902 702 902 664 c 0,16,17
EndSplineSet
Colour: ff00ff
EndChar

StartChar: uni30BD_uni309A.ccmp
Encoding: 1114143 -1 44
Width: 1000
Flags: W
LayerCount: 2
Fore
SplineSet
229 37 m 1,0,1
 470 81 470 81 582 185 c 0,2,3
 698 293 698 293 732 511 c 0,4,5
 734 521 734 521 736 531 c 0,6,7
 736 531 736 531 804 520 c 0,8,9
 769 277 769 277 652 153 c 0,10,11
 531 27 531 27 271 -23 c 0,12,13
 261 -25 261 -25 244 -27 c 1,14,-1
 229 37 l 1,0,1
122 623 m 1,15,-1
 190 652 l 1,16,17
 263 498 263 498 331 342 c 1,18,-1
 261 316 l 1,19,20
 175 513 175 513 122 623 c 1,15,-1
893 664 m 0,21,22
 892 602 892 602 844 568 c 0,23,24
 813 546 813 546 775 546 c 0,25,26
 712 547 712 547 678 595 c 0,27,28
 656 626 656 626 657 664 c 0,29,30
 658 727 658 727 706 761 c 0,31,32
 737 783 737 783 775 783 c 0,33,34
 836 782 836 782 871 733 c 0,35,36
 893 702 893 702 893 664 c 0,21,22
842 664 m 0,37,38
 841 703 841 703 808 722 c 0,39,40
 793 731 793 731 775 731 c 0,41,42
 733 730 733 730 717 696 c 0,43,44
 708 677 708 677 708 664 c 0,45,46
 707 626 707 626 742 606 c 0,47,48
 757 597 757 597 775 597 c 0,49,50
 813 598 813 598 833 632 c 0,51,52
 842 648 842 648 842 664 c 0,37,38
EndSplineSet
Colour: ff00ff
EndChar

StartChar: uni30E7_uni3099.ccmp
Encoding: 1114144 -1 45
Width: 1000
Flags: W
LayerCount: 2
Fore
SplineSet
684 668 m 1,0,-1
 744 700 l 1,1,2
 790 628 790 628 838 534 c 1,3,-1
 778 504 l 1,4,5
 746 565 746 565 684 668 c 1,0,-1
550 630 m 1,6,-1
 608 661 l 1,7,8
 658 582 658 582 702 497 c 1,9,-1
 701 497 l 1,10,-1
 701 -1 l 1,11,-1
 170 -1 l 1,12,-1
 170 59 l 1,13,-1
 630 59 l 1,14,-1
 630 243 l 1,15,-1
 205 243 l 1,16,-1
 205 302 l 1,17,-1
 630 302 l 1,18,-1
 630 450 l 1,19,-1
 170 450 l 1,20,-1
 170 511 l 1,21,-1
 619 511 l 1,22,23
 588 566 588 566 550 630 c 1,6,-1
EndSplineSet
Colour: ff00ff
EndChar

StartChar: uni30E9_uni309A.ccmp
Encoding: 1114145 -1 46
Width: 1000
Flags: W
LayerCount: 2
Fore
SplineSet
881 634 m 0,0,1
 880 572 880 572 832 538 c 0,2,3
 801 516 801 516 763 516 c 0,4,5
 702 517 702 517 666 565 c 0,6,7
 660 573 660 573 656 582 c 1,8,-1
 185 582 l 1,9,-1
 185 646 l 1,10,-1
 646 646 l 1,11,12
 651 699 651 699 694 731 c 0,13,14
 725 753 725 753 763 753 c 0,15,16
 824 752 824 752 859 703 c 0,17,18
 881 672 881 672 881 634 c 0,0,1
830 634 m 0,19,20
 829 673 829 673 796 692 c 0,21,22
 781 701 781 701 763 701 c 0,23,24
 725 700 725 700 705 666 c 0,25,26
 698 651 698 651 696 634 c 0,27,28
 697 595 697 595 730 576 c 0,29,30
 745 567 745 567 763 567 c 0,31,32
 801 568 801 568 821 602 c 0,33,34
 830 618 830 618 830 634 c 0,19,20
115 414 m 1,35,-1
 818 414 l 1,36,-1
 818 398 l 2,37,38
 816 -12 816 -12 259 -52 c 1,39,-1
 258 -52 l 1,40,-1
 257 -52 l 1,41,-1
 246 11 l 1,42,43
 710 46 710 46 744 350 c 1,44,-1
 115 350 l 1,45,-1
 115 414 l 1,35,-1
EndSplineSet
Colour: ff00ff
EndChar

StartChar: uni30EA_uni309A.ccmp
Encoding: 1114146 -1 47
Width: 1000
Flags: W
LayerCount: 2
Fore
SplineSet
881 634 m 0,0,1
 880 572 880 572 832 538 c 0,2,3
 801 516 801 516 763 516 c 0,4,5
 741 516 741 516 723 523 c 1,6,-1
 723 427 l 2,7,8
 723 175 723 175 596 61 c 0,9,10
 487 -37 487 -37 303 -62 c 1,11,-1
 287 5 l 1,12,13
 471 33 471 33 562 129 c 1,14,15
 648 231 648 231 648 425 c 2,16,-1
 648 604 l 2,17,18
 645 618 645 618 645 634 c 0,19,20
 646 695 646 695 694 731 c 0,21,22
 725 753 725 753 763 753 c 0,23,24
 824 752 824 752 859 703 c 0,25,26
 881 672 881 672 881 634 c 0,0,1
830 634 m 0,27,28
 829 673 829 673 796 692 c 0,29,30
 781 701 781 701 763 701 c 0,31,32
 725 700 725 700 705 666 c 0,33,34
 698 651 698 651 696 634 c 0,35,36
 697 595 697 595 730 576 c 0,37,38
 745 567 745 567 763 567 c 0,39,40
 801 568 801 568 821 602 c 0,41,42
 830 618 830 618 830 634 c 0,27,28
195 260 m 1,43,-1
 195 660 l 1,44,-1
 268 660 l 1,45,-1
 268 260 l 1,46,-1
 195 260 l 1,43,-1
EndSplineSet
Colour: ff00ff
EndChar

StartChar: uni30EB_uni309A.ccmp
Encoding: 1114147 -1 48
Width: 1000
Flags: W
LayerCount: 2
Fore
SplineSet
868 576 m 0,0,1
 867 514 867 514 819 480 c 0,2,3
 788 458 788 458 750 458 c 0,4,5
 687 459 687 459 653 507 c 0,6,7
 631 538 631 538 632 576 c 0,8,9
 633 639 633 639 681 673 c 0,10,11
 712 695 712 695 750 695 c 0,12,13
 811 694 811 694 846 645 c 0,14,15
 868 614 868 614 868 576 c 0,0,1
817 576 m 0,16,17
 816 615 816 615 783 634 c 0,18,19
 768 643 768 643 750 643 c 0,20,21
 708 642 708 642 692 608 c 0,22,23
 683 589 683 589 683 576 c 0,24,25
 682 538 682 538 717 518 c 0,26,27
 732 509 732 509 750 509 c 0,28,29
 788 510 788 510 808 544 c 0,30,31
 817 560 817 560 817 576 c 0,16,17
558 30 m 1,32,33
 720 57 720 57 787 214 c 0,34,35
 814 283 814 283 822 368 c 1,36,-1
 889 360 l 1,37,38
 870 142 870 142 736 36 c 0,39,40
 637 -41 637 -41 500 -41 c 2,41,-1
 485 -41 l 1,42,-1
 485 655 l 1,43,-1
 558 655 l 1,44,-1
 558 30 l 1,32,33
249 655 m 1,45,-1
 322 655 l 1,46,-1
 322 475 l 2,47,48
 322 215 322 215 275 107 c 0,49,50
 240 26 240 26 155 -24 c 0,51,52
 121 -42 121 -42 113 -46 c 1,53,-1
 76 14 l 1,54,55
 160 54 160 54 193 107 c 0,56,57
 238 177 238 177 246 348 c 0,58,59
 249 404 249 404 249 475 c 2,60,-1
 249 655 l 1,45,-1
EndSplineSet
Colour: ff00ff
EndChar

StartChar: uni30EC_uni309A.ccmp
Encoding: 1114148 -1 49
Width: 1000
Flags: W
LayerCount: 2
Fore
SplineSet
766 563 m 0,0,1
 765 501 765 501 717 467 c 0,2,3
 686 445 686 445 648 445 c 0,4,5
 585 446 585 446 551 494 c 0,6,7
 529 525 529 525 530 563 c 0,8,9
 531 626 531 626 579 660 c 0,10,11
 610 682 610 682 648 682 c 0,12,13
 709 681 709 681 744 632 c 0,14,15
 766 601 766 601 766 563 c 0,0,1
715 563 m 0,16,17
 714 602 714 602 681 621 c 0,18,19
 666 630 666 630 648 630 c 0,20,21
 606 629 606 629 590 595 c 0,22,23
 581 576 581 576 581 563 c 0,24,25
 580 525 580 525 615 505 c 0,26,27
 630 496 630 496 648 496 c 0,28,29
 686 497 686 497 706 531 c 0,30,31
 715 547 715 547 715 563 c 0,16,17
268 25 m 1,32,33
 601 46 601 46 738 307 c 0,34,35
 759 347 759 347 775 393 c 1,36,-1
 839 367 l 1,37,38
 694 -28 694 -28 244 -42 c 0,39,40
 231 -43 231 -43 209 -43 c 2,41,-1
 194 -43 l 1,42,-1
 194 660 l 1,43,-1
 268 660 l 1,44,-1
 268 25 l 1,32,33
EndSplineSet
Colour: ff00ff
EndChar

StartChar: uni30ED_uni309A.ccmp
Encoding: 1114149 -1 50
Width: 1000
Flags: W
LayerCount: 2
Fore
SplineSet
895 634 m 0,0,1
 894 572 894 572 846 538 c 0,2,3
 815 516 815 516 777 516 c 0,4,5
 772 516 772 516 767 516 c 1,6,-1
 767 -10 l 1,7,-1
 200 -10 l 1,8,-1
 127 -10 l 1,9,-1
 127 633 l 1,10,-1
 659 633 l 2,11,12
 659 633 659 633 659 634 c 0,13,14
 660 697 660 697 708 731 c 0,15,16
 739 753 739 753 777 753 c 0,17,18
 838 752 838 752 873 703 c 0,19,20
 895 672 895 672 895 634 c 0,0,1
844 634 m 0,21,22
 843 673 843 673 810 692 c 0,23,24
 795 701 795 701 777 701 c 0,25,26
 735 700 735 700 719 666 c 0,27,28
 710 647 710 647 710 634 c 0,29,30
 709 596 709 596 744 576 c 0,31,32
 759 567 759 567 777 567 c 0,33,34
 815 568 815 568 835 602 c 0,35,36
 844 618 844 618 844 634 c 0,21,22
200 55 m 1,37,-1
 694 55 l 1,38,-1
 694 548 l 1,39,40
 686 555 686 555 680 565 c 0,41,42
 679 566 679 566 678 568 c 2,43,-1
 200 568 l 1,44,-1
 200 55 l 1,37,-1
EndSplineSet
Colour: ff00ff
EndChar

StartChar: uni30F3_uni3099.ccmp
Encoding: 1114150 -1 51
Width: 1000
Flags: W
LayerCount: 2
Fore
SplineSet
785 745 m 1,0,-1
 836 773 l 1,1,2
 876 707 876 707 915 633 c 1,3,-1
 863 608 l 1,4,5
 820 688 820 688 785 745 c 1,0,-1
662 731 m 1,6,-1
 712 757 l 1,7,8
 756 685 756 685 788 622 c 1,9,-1
 738 596 l 1,10,11
 710 653 710 653 662 731 c 1,6,-1
836 557 m 1,12,13
 740 34 740 34 164 -18 c 1,14,-1
 153 50 l 1,15,16
 590 92 590 92 724 416 c 0,17,18
 754 494 754 494 770 572 c 1,19,-1
 836 557 l 1,12,13
133 593 m 1,20,-1
 166 654 l 1,21,22
 319 576 319 576 444 500 c 1,23,-1
 408 438 l 1,24,25
 292 511 292 511 133 593 c 1,20,-1
EndSplineSet
Colour: ff00ff
EndChar

StartChar: uni30FC_uni3099.ccmp
Encoding: 1114151 -1 52
Width: 1000
Flags: W
LayerCount: 2
Fore
SplineSet
684 668 m 1,0,-1
 744 700 l 1,1,2
 790 628 790 628 838 534 c 1,3,-1
 778 504 l 1,4,5
 746 565 746 565 684 668 c 1,0,-1
550 630 m 1,6,-1
 608 661 l 1,7,8
 658 582 658 582 702 497 c 1,9,-1
 642 468 l 1,10,11
 603 541 603 541 550 630 c 1,6,-1
198 301 m 1,12,-1
 100 353 l 1,13,-1
 127 410 l 1,14,-1
 196 373 l 2,15,16
 200 372 200 372 224 363 c 1,17,-1
 249 362 l 1,18,-1
 848 362 l 1,19,-1
 848 293 l 1,20,-1
 237 293 l 2,21,22
 230 293 230 293 217 295 c 2,23,-1
 198 301 l 1,12,-1
EndSplineSet
Colour: ff00ff
EndChar
